<svg width="121" height="66" viewBox="0 0 121 66" fill="none" xmlns="http://www.w3.org/2000/svg">
<path d="M4.70896 4.57962C8.69706 3.27305 12.8853 2.47405 17.1667 2.20304C19.8953 1.97931 22.9407 1.84634 26.1941 1.79947C29.6753 1.73123 33.1733 1.8902 36.6627 2.27524C38.541 2.48891 40.4103 2.81739 42.2585 3.25856C44.1816 3.69537 46.07 4.29118 47.901 5.03876C49.7851 5.78508 51.5827 6.73252 53.2561 7.86126C54.9623 8.97991 56.513 10.3013 57.8657 11.789L58.0828 12.0404C57.9786 12.078 57.8591 12.0993 57.7454 12.133C53.4607 13.4292 49.833 16.0242 47.4081 19.5275C46.1996 21.3181 45.4097 23.3446 45.0866 25.4838C44.7465 27.7243 45.0321 30.0467 45.9161 32.2294C46.3457 33.3912 46.9662 34.4934 47.7542 35.4946C48.6289 36.6221 49.7539 37.5644 51.0439 38.2498C52.3121 38.8868 53.6924 39.2741 55.0945 39.3864C56.4966 39.4987 57.8889 39.3334 59.1804 38.9013C61.5195 38.1175 63.4372 36.571 64.6002 34.5305C65.6771 32.6684 66.337 30.6013 66.5422 28.4474C66.7638 26.3323 66.6326 24.1764 66.1532 22.0558C65.5487 19.4102 64.4731 16.8512 62.9726 14.4885C63.6099 14.4314 64.2533 14.4144 64.8987 14.4375C68.7052 14.5485 72.493 15.4507 75.9882 17.0789C79.2569 18.5771 82.2966 20.5162 85.004 22.8304C87.3787 24.8406 89.501 27.0992 91.3239 29.5563C92.824 31.6748 94.1256 33.9034 95.2128 36.2152C96.9526 39.8177 98.2771 43.5625 99.1625 47.3827C99.7782 49.9421 100.188 52.5289 100.39 55.1209C100.536 57.2013 100.566 58.7081 100.559 59.8764C100.571 60.8912 100.549 61.5588 100.556 62.0767L100.09 61.4093C98.7625 59.5066 97.5289 57.8044 96.4532 56.3897C94.2982 53.5689 92.7961 51.8465 92.4384 52.0417C92.0807 52.237 92.9494 54.1517 94.6438 57.1756C95.4874 58.6962 96.5351 60.4729 97.7385 62.4353L98.1947 63.1795C98.3874 63.5015 98.6084 63.8092 98.8551 64.0992C99.0166 64.283 99.1939 64.4544 99.3851 64.6114C99.6279 64.8115 99.8971 64.9807 100.185 65.1141C100.778 65.3889 101.436 65.4847 102.065 65.3875C102.854 65.2164 103.592 64.905 104.239 64.4698L105.835 63.5852C114.577 58.5194 121.28 53.9121 120.764 53.2847C120.249 52.6573 112.739 56.2439 103.987 61.3058L102.843 61.9833C102.983 61.4523 103.085 60.9109 103.148 60.3627C103.373 58.7341 103.464 57.0838 103.42 55.426C103.378 52.6983 103.068 49.9637 102.493 47.2567C101.669 43.2006 100.344 39.2184 98.5437 35.3925C97.3696 32.871 95.9537 30.4424 94.3142 28.1383C92.3157 25.4134 89.9765 22.9117 87.3512 20.6918C84.3347 18.1116 80.9431 15.9551 77.2946 14.2974C73.2454 12.4263 68.8583 11.404 64.4562 11.3057C63.1875 11.2725 61.9269 11.3596 60.6936 11.566C60.4034 11.2237 60.1131 10.8814 59.8027 10.561C58.2624 8.91248 56.5053 7.45154 54.5788 6.2175C52.7155 5.01432 50.7228 4.00986 48.6409 3.22443C46.6609 2.45802 44.6222 1.85751 42.5501 1.43031C40.6138 1.00446 38.6578 0.697475 36.695 0.51137C33.1193 0.183982 29.5398 0.10304 25.9858 0.269209C22.6754 0.400207 19.6294 0.623814 16.8478 0.94003C12.5102 1.3626 8.30503 2.38841 4.36841 3.98424C3.33186 4.42155 2.33799 4.93517 1.39558 5.52058C0.768819 5.93773 0.471405 6.14786 0.49727 6.21915C0.523136 6.29045 1.97165 5.54698 4.72787 4.58745L4.70896 4.57962ZM59.2646 15.2056C59.5831 15.1051 59.9133 15.0298 60.2435 14.9544C61.721 17.2273 62.7549 19.7093 63.2934 22.2757C63.6818 24.1504 63.7653 26.0511 63.5409 27.912C63.339 29.7411 62.7501 31.4911 61.808 33.0617C60.9217 34.5592 59.4841 35.6855 57.7431 36.2464C56.8922 36.5316 55.9749 36.6414 55.0509 36.5686C54.1269 36.4959 53.2169 36.2422 52.3802 35.824C50.773 34.8312 49.5796 33.3365 49.0323 31.6309C48.3542 29.8932 48.1523 28.0505 48.4458 26.2785C48.7516 24.5226 49.4374 22.8659 50.462 21.4076C51.4812 19.937 52.7625 18.6491 54.255 17.5954C55.7438 16.529 57.4311 15.7184 59.2457 15.1977" fill="#D1A1FF"/>
</svg>
