<svg width="30" height="29" viewBox="0 0 30 29" fill="none" xmlns="http://www.w3.org/2000/svg">
<g clip-path="url(#clip0_1_406)">
<path d="M28.9932 5.94275L26.8903 5.94266V3.83836C26.8903 3.35659 26.5257 2.94727 26.0327 2.87599C25.9467 2.86349 23.898 2.57584 21.431 3.00976C18.6808 3.49348 16.4875 4.68638 14.9999 6.48975C13.5123 4.68638 11.319 3.49348 8.56886 3.00976C6.1018 2.57593 4.05312 2.86349 3.96716 2.87599C3.47423 2.94737 3.10959 3.35668 3.10959 3.83836V5.94266H1.00666C0.450807 5.94266 0 6.37843 0 6.91586V25.2537C0 25.5687 0.157777 25.8643 0.423534 26.0469C0.689291 26.2295 1.03 26.2764 1.33777 26.1727C1.41333 26.1474 8.95704 23.6587 14.5822 26.139C14.8476 26.2561 15.1524 26.2561 15.4178 26.139C21.0272 23.6657 28.5871 26.1476 28.6622 26.1727C28.7701 26.209 28.8818 26.2269 28.9931 26.2269C29.1995 26.2269 29.4037 26.1655 29.5765 26.047C29.8422 25.8644 30 25.5688 30 25.2538V6.91596C29.9999 6.37853 29.5492 5.94275 28.9932 5.94275ZM2.01343 23.9516V7.88897H3.10959V20.8487C3.10959 21.1315 3.23756 21.4 3.45888 21.5848C3.68019 21.7697 3.97453 21.8526 4.26382 21.8113C4.31938 21.8034 8.6927 21.2231 11.8878 23.3422C7.95199 22.6916 4.01281 23.4441 2.01343 23.9516ZM13.9933 22.4646C12.586 21.2355 10.753 20.4043 8.56886 20.0202C7.51775 19.8353 6.5426 19.7814 5.76281 19.7814C5.53129 19.7814 5.31695 19.7861 5.12311 19.7937V4.73198H5.12301C7.05785 4.64762 11.7646 4.84759 13.9933 8.49972V22.4646ZM16.0066 8.49982C18.2273 4.86331 22.9414 4.65426 24.8769 4.73442V19.7937C24.0301 19.7607 22.7941 19.7804 21.431 20.0202C19.2469 20.4043 17.4139 21.2354 16.0066 22.4646V8.49982ZM18.1087 23.3428C21.3043 21.2224 25.6799 21.8034 25.7345 21.8112C26.0245 21.8532 26.3186 21.7708 26.5406 21.5861C26.7626 21.4012 26.8903 21.1321 26.8903 20.8487V7.88907H27.9865V23.9516C25.9865 23.4439 22.0457 22.6911 18.1087 23.3428Z" fill="white" stroke="#DF9CFF" stroke-width="0.5"/>
</g>
<defs>
<clipPath id="clip0_1_406">
<rect width="30" height="29" fill="white"/>
</clipPath>
</defs>
</svg>
