<svg width="26" height="26" viewBox="0 0 26 26" fill="none" xmlns="http://www.w3.org/2000/svg">
<path d="M2.46003 20.8H2.60059L9.38164 19.3243C9.51372 19.3023 9.63611 19.2411 9.73295 19.1487L21.222 7.65952C22.0613 6.82205 22.5295 5.68297 22.522 4.49741C22.5236 3.30264 22.0568 2.15487 21.222 1.30012C20.3846 0.460835 19.2455 -0.00742983 18.0599 0.000169473C16.8667 -0.0103888 15.7223 0.472806 14.8978 1.33529L3.44377 12.8244C3.34276 12.9057 3.26912 13.016 3.23294 13.1406L1.75733 19.9216C1.71705 20.1651 1.79533 20.4131 1.96816 20.5892C2.09789 20.7216 2.27469 20.7974 2.46003 20.8ZM18.0599 1.40557C19.7481 1.40543 21.1167 2.77391 21.1168 4.4621C21.1168 4.47387 21.1168 4.48564 21.1166 4.49741C21.1281 5.30166 20.8108 6.07578 20.2383 6.64061L15.9167 2.28386C16.486 1.71808 17.2572 1.402 18.0599 1.40557ZM14.9329 3.30284L19.2545 7.62442L9.24102 17.6027L4.91944 13.3162L14.9329 3.30284ZM4.3573 14.7217L7.83562 18.2L3.37349 19.1838L4.3573 14.7217Z" fill="white"/>
<path d="M24.7707 24.5946H1.23029C0.842185 24.5946 0.527588 24.9092 0.527588 25.2973C0.527588 25.6854 0.842185 26 1.23029 26H24.7707C25.1588 26 25.4734 25.6854 25.4734 25.2973C25.4734 24.9092 25.1588 24.5946 24.7707 24.5946Z" fill="white"/>
</svg>
