<svg width="36" height="24" viewBox="0 0 36 24" fill="none" xmlns="http://www.w3.org/2000/svg">
<path d="M18 10.4545C20.5916 10.4545 22.7 8.34613 22.7 5.75448C22.7 3.16283 20.5916 1.05444 18 1.05444C15.4084 1.05444 13.3 3.1629 13.3 5.75448C13.3 8.34606 15.4084 10.4545 18 10.4545ZM18 3.30444C19.351 3.30444 20.45 4.4035 20.45 5.75448C20.45 7.10539 19.351 8.20452 18 8.20452C16.649 8.20452 15.55 7.10546 15.55 5.75448C15.55 4.4035 16.6491 3.30444 18 3.30444ZM21.8752 12.2669C20.6156 12.0663 19.3118 11.9646 18 11.9646C16.6882 11.9646 15.3844 12.0663 14.1249 12.2669C11.0578 12.7553 8.83181 15.3639 8.83181 18.4696V21.8205C8.83181 22.4417 9.33553 22.9455 9.95681 22.9455H26.0433C26.6645 22.9455 27.1683 22.4417 27.1683 21.8205V18.4696C27.1683 15.3639 24.9422 12.7553 21.8752 12.2669ZM24.9183 20.6955H11.0818V18.4696C11.0818 16.4765 12.5104 14.8024 14.4788 14.4889C15.6216 14.3069 16.8064 14.2146 18.0001 14.2146C19.1938 14.2146 20.3785 14.3069 21.5214 14.4889C23.4897 14.8024 24.9183 16.4765 24.9183 18.4696V20.6955H24.9183ZM28.4735 10.2972C30.6628 10.2972 32.4439 8.51607 32.4439 6.32682C32.4439 4.13757 30.6628 2.35649 28.4735 2.35649C26.2843 2.35649 24.5032 4.13757 24.5032 6.32682C24.5032 8.51607 26.2842 10.2972 28.4735 10.2972V10.2972ZM28.4735 4.60649C29.4221 4.60649 30.1939 5.37824 30.1939 6.32682C30.1939 7.27541 29.4221 8.04716 28.4735 8.04716C27.525 8.04716 26.7532 7.27541 26.7532 6.32682C26.7532 5.37824 27.5249 4.60649 28.4735 4.60649ZM36 16.4466V18.3161C36 18.9374 35.4963 19.4411 34.875 19.4411H28.8191C28.1978 19.4411 27.6941 18.9374 27.6941 18.3161C27.6941 17.6948 28.1978 17.1911 28.8191 17.1911H33.75V16.4466C33.75 14.9738 32.6944 13.7368 31.24 13.5052C30.3425 13.3623 29.4118 13.2898 28.4735 13.2898C27.6664 13.2898 26.8621 13.3436 26.0828 13.4497C25.467 13.5334 24.9001 13.1024 24.8163 12.4868C24.7325 11.8712 25.1636 11.3042 25.7792 11.2203C26.6587 11.1005 27.5652 11.0398 28.4734 11.0398C29.5298 11.0398 30.5797 11.1217 31.5938 11.2832C34.1469 11.6898 36 13.8613 36 16.4466ZM7.52653 10.2972C9.71578 10.2972 11.4969 8.51607 11.4969 6.32682C11.4969 4.13757 9.71578 2.35649 7.52653 2.35649C5.33728 2.35649 3.55612 4.13757 3.55612 6.32682C3.55612 8.51607 5.33728 10.2972 7.52653 10.2972V10.2972ZM7.52653 4.60649C8.47512 4.60649 9.24687 5.37824 9.24687 6.32682C9.24687 7.27541 8.47512 8.04716 7.52653 8.04716C6.57788 8.04716 5.80612 7.27541 5.80612 6.32682C5.80612 5.37824 6.57795 4.60649 7.52653 4.60649V4.60649ZM8.30587 18.3162C8.30587 18.9374 7.80216 19.4412 7.18087 19.4412H1.125C0.503719 19.4412 0 18.9374 0 18.3162V16.4467C0 13.8613 1.85309 11.6898 4.4062 11.2833C5.42025 11.1218 6.47009 11.0399 7.52653 11.0399C8.43476 11.0399 9.34123 11.1006 10.2208 11.2204C10.8364 11.3042 11.2675 11.8712 11.1836 12.4869C11.0998 13.1026 10.533 13.534 9.91709 13.4498C9.13781 13.3437 8.33351 13.2899 7.52646 13.2899C6.58821 13.2899 5.65741 13.3624 4.76002 13.5053C3.3056 13.7368 2.25 14.9738 2.25 16.4466V17.1911H7.18087C7.80223 17.1912 8.30587 17.6948 8.30587 18.3162V18.3162Z" fill="white" stroke="#DF9BFF" stroke-width="0.5"/>
</svg>
