<svg aria-hidden="true" style="position: absolute; width: 0; height: 0; overflow: hidden;" version="1.1" xmlns="http://www.w3.org/2000/svg" xmlns:xlink="http://www.w3.org/1999/xlink">
<defs>
<symbol id="icon-arrowpurple" viewBox="0 0 59 32">
<path fill="#d1a1ff" style="fill: var(--color1, #d1a1ff)" d="M2.283 2.22c1.934-0.633 3.964-1.021 6.040-1.152 1.323-0.108 2.8-0.173 4.377-0.196 1.688-0.033 3.384 0.044 5.076 0.231 0.911 0.104 1.817 0.263 2.713 0.477 0.932 0.212 1.848 0.501 2.736 0.863 0.913 0.362 1.785 0.821 2.596 1.369 0.827 0.542 1.579 1.183 2.235 1.904l0.105 0.122c-0.051 0.018-0.108 0.029-0.164 0.045-2.077 0.628-3.836 1.887-5.012 3.585-0.586 0.868-0.969 1.851-1.126 2.888-0.165 1.086-0.026 2.212 0.402 3.271 0.208 0.563 0.509 1.098 0.891 1.583 0.424 0.547 0.97 1.004 1.595 1.336 0.615 0.309 1.284 0.497 1.964 0.551s1.355-0.026 1.981-0.235c1.134-0.38 2.064-1.13 2.628-2.119 0.522-0.903 0.842-1.905 0.942-2.949 0.107-1.026 0.044-2.071-0.189-3.099-0.293-1.283-0.815-2.523-1.542-3.669 0.309-0.028 0.621-0.036 0.934-0.025 1.846 0.054 3.682 0.491 5.377 1.281 1.585 0.726 3.059 1.667 4.371 2.789 1.151 0.975 2.18 2.070 3.064 3.261 0.727 1.027 1.358 2.108 1.886 3.229 0.844 1.747 1.486 3.562 1.915 5.415 0.299 1.241 0.497 2.495 0.595 3.752 0.071 1.009 0.085 1.739 0.082 2.306 0.006 0.492-0.005 0.816-0.001 1.067l-0.226-0.324c-0.644-0.923-1.242-1.748-1.763-2.434-1.045-1.368-1.773-2.203-1.947-2.108s0.248 1.023 1.069 2.489c0.409 0.737 0.917 1.599 1.5 2.55l0.221 0.361c0.093 0.156 0.201 0.305 0.32 0.446 0.078 0.089 0.164 0.172 0.257 0.248 0.118 0.097 0.248 0.179 0.388 0.244 0.288 0.133 0.607 0.18 0.911 0.133 0.383-0.083 0.74-0.234 1.054-0.445l0.774-0.429c4.239-2.456 7.489-4.69 7.238-4.994s-3.891 1.435-8.134 3.889l-0.555 0.329c0.068-0.257 0.117-0.52 0.148-0.786 0.109-0.79 0.153-1.59 0.132-2.394-0.020-1.323-0.171-2.648-0.449-3.961-0.4-1.967-1.042-3.897-1.915-5.752-0.569-1.223-1.256-2.4-2.051-3.517-0.969-1.321-2.103-2.534-3.376-3.61-1.463-1.251-3.107-2.297-4.876-3.1-1.963-0.907-4.090-1.403-6.225-1.451-0.615-0.016-1.226 0.026-1.824 0.126-0.141-0.166-0.281-0.332-0.432-0.487-0.747-0.799-1.599-1.508-2.533-2.106-0.903-0.583-1.87-1.070-2.879-1.451-0.96-0.372-1.948-0.663-2.953-0.87-0.939-0.206-1.887-0.355-2.839-0.446-1.734-0.159-3.469-0.198-5.192-0.117-1.605 0.064-3.082 0.172-4.431 0.325-2.103 0.205-4.142 0.702-6.051 1.476-0.503 0.212-0.984 0.461-1.441 0.745-0.304 0.202-0.448 0.304-0.436 0.339s0.715-0.326 2.051-0.791l-0.009-0.004zM28.734 7.372c0.154-0.049 0.315-0.085 0.475-0.122 0.716 1.102 1.218 2.305 1.479 3.55 0.188 0.909 0.229 1.831 0.12 2.733-0.098 0.887-0.383 1.735-0.84 2.497-0.43 0.726-1.127 1.272-1.971 1.544-0.413 0.138-0.857 0.192-1.305 0.156s-0.889-0.158-1.295-0.361c-0.779-0.481-1.358-1.206-1.623-2.033-0.329-0.843-0.427-1.736-0.284-2.595 0.148-0.851 0.481-1.655 0.978-2.362 0.494-0.713 1.115-1.337 1.839-1.848 0.722-0.517 1.54-0.91 2.42-1.163z"></path>
</symbol>
<symbol id="icon-arrowright" viewBox="0 0 32 32">
<path fill="none" stroke="#fff" style="stroke: var(--color2, #fff)" stroke-linejoin="round" stroke-linecap="round" stroke-miterlimit="4" stroke-width="3" d="M5 16h22"></path>
<path fill="none" stroke="#fff" style="stroke: var(--color2, #fff)" stroke-linejoin="round" stroke-linecap="round" stroke-miterlimit="4" stroke-width="3" d="M18 7l9 9-9 9"></path>
</symbol>
<symbol id="icon-open-book" viewBox="0 0 33 32">
<path fill="#fff" style="fill: var(--color2, #fff); stroke: var(--color3, #df9cff)" stroke="#df9cff" stroke-linejoin="miter" stroke-linecap="butt" stroke-miterlimit="4" stroke-width="0.5517" d="M31.992 6.558l-2.32-0v-2.322c0-0.532-0.402-0.983-0.946-1.062-0.095-0.014-2.356-0.331-5.078 0.148-3.035 0.534-5.455 1.85-7.096 3.84-1.642-1.99-4.062-3.306-7.096-3.84-2.722-0.479-4.983-0.161-5.078-0.148-0.544 0.079-0.946 0.53-0.946 1.062v2.322h-2.32c-0.613 0-1.111 0.481-1.111 1.074v20.235c0 0.348 0.174 0.674 0.467 0.875s0.669 0.253 1.009 0.139c0.083-0.028 8.407-2.774 14.615-0.037 0.293 0.129 0.629 0.129 0.922 0 6.19-2.729 14.532 0.009 14.614 0.037 0.119 0.040 0.242 0.060 0.365 0.060 0.228 0 0.453-0.068 0.644-0.198 0.293-0.201 0.467-0.528 0.467-0.875v-20.235c-0-0.593-0.497-1.074-1.111-1.074zM2.222 26.429v-17.724h1.21v14.3c0 0.312 0.141 0.608 0.385 0.812s0.569 0.296 0.888 0.25c0.061-0.009 4.887-0.649 8.413 1.689-4.343-0.718-8.69 0.112-10.896 0.672zM15.441 24.789c-1.553-1.356-3.575-2.273-5.986-2.697-1.16-0.204-2.236-0.264-3.096-0.264-0.255 0-0.492 0.005-0.706 0.014v-16.62h-0c2.135-0.093 7.329 0.128 9.788 4.157v15.41zM17.662 9.379c2.45-4.013 7.652-4.243 9.788-4.155v16.617c-0.934-0.036-2.298-0.015-3.802 0.25-2.41 0.424-4.433 1.341-5.986 2.697v-15.409zM19.982 25.758c3.526-2.34 8.354-1.699 8.415-1.69 0.32 0.046 0.645-0.045 0.889-0.248s0.386-0.501 0.386-0.814v-14.3h1.21v17.724c-2.207-0.56-6.555-1.391-10.9-0.672z"></path>
</symbol>
<symbol id="icon-orange" viewBox="0 0 810 32">
<path fill="none" stroke="#ff7446" style="stroke: var(--color4, #ff7446)" stroke-linejoin="miter" stroke-linecap="butt" stroke-miterlimit="4" stroke-width="4.9231" d="M2.462 29.538c314.343-35.164 490.58-37.029 804.923 0"></path>
</symbol>
<symbol id="icon-pen" viewBox="0 0 32 32">
<path fill="#fff" style="fill: var(--color2, #fff)" d="M3.028 25.6h0.173l8.346-1.816c0.163-0.027 0.313-0.102 0.432-0.216l14.14-14.141c1.033-1.031 1.609-2.433 1.6-3.892 0.002-1.47-0.573-2.883-1.6-3.935-1.031-1.033-2.433-1.609-3.892-1.6-1.469-0.013-2.877 0.582-3.892 1.643l-14.097 14.14c-0.124 0.1-0.215 0.236-0.259 0.389l-1.816 8.346c-0.050 0.3 0.047 0.605 0.259 0.822 0.16 0.163 0.377 0.256 0.605 0.259zM22.228 1.73c2.078-0 3.762 1.684 3.762 3.762 0 0.014 0 0.029-0 0.043 0.014 0.99-0.376 1.943-1.081 2.638l-5.319-5.362c0.701-0.696 1.65-1.085 2.638-1.081zM18.379 4.065l5.319 5.319-12.324 12.281-5.319-5.276 12.324-12.324zM5.363 18.119l4.281 4.281-5.492 1.211 1.211-5.492z"></path>
<path fill="#fff" style="fill: var(--color2, #fff)" d="M30.487 30.27h-28.973c-0.478 0-0.865 0.387-0.865 0.865s0.387 0.865 0.865 0.865h28.973c0.478 0 0.865-0.387 0.865-0.865s-0.387-0.865-0.865-0.865z"></path>
</symbol>
<symbol id="icon-people" viewBox="0 0 48 32">
<path fill="#fff" style="fill: var(--color2, #fff); stroke: var(--color5, #df9bff)" stroke="#df9bff" stroke-linejoin="miter" stroke-linecap="butt" stroke-miterlimit="4" stroke-width="0.6667" d="M24 13.939c3.455 0 6.267-2.811 6.267-6.267s-2.811-6.267-6.267-6.267c-3.455 0-6.267 2.811-6.267 6.267s2.811 6.267 6.267 6.267zM24 4.406c1.801 0 3.267 1.465 3.267 3.267s-1.465 3.267-3.267 3.267-3.267-1.465-3.267-3.267c0-1.801 1.465-3.267 3.267-3.267zM29.167 16.356c-1.679-0.267-3.418-0.403-5.167-0.403s-3.487 0.136-5.167 0.403c-4.089 0.651-7.057 4.129-7.057 8.27v4.468c0 0.828 0.672 1.5 1.5 1.5h21.449c0.828 0 1.5-0.672 1.5-1.5v-4.468c0-4.141-2.968-7.619-7.057-8.27zM33.224 27.594h-18.449v-2.968c0-2.657 1.905-4.89 4.529-5.308 1.524-0.243 3.103-0.366 4.695-0.366s3.171 0.123 4.695 0.366c2.624 0.418 4.529 2.65 4.529 5.308v2.968zM37.965 13.73c2.919 0 5.294-2.375 5.294-5.294s-2.375-5.294-5.294-5.294c-2.919 0-5.294 2.375-5.294 5.294s2.375 5.294 5.294 5.294v0zM37.965 6.142c1.265 0 2.294 1.029 2.294 2.294s-1.029 2.294-2.294 2.294c-1.265 0-2.294-1.029-2.294-2.294s1.029-2.294 2.294-2.294zM48 21.929v2.493c0 0.828-0.672 1.5-1.5 1.5h-8.075c-0.828 0-1.5-0.672-1.5-1.5s0.672-1.5 1.5-1.5h6.575v-0.993c0-1.964-1.407-3.613-3.347-3.922-1.197-0.191-2.438-0.287-3.689-0.287-1.076 0-2.149 0.072-3.188 0.213-0.821 0.112-1.577-0.463-1.689-1.284s0.463-1.577 1.284-1.689c1.173-0.16 2.381-0.241 3.592-0.241 1.409 0 2.808 0.109 4.161 0.325 3.404 0.542 5.875 3.437 5.875 6.885zM10.035 13.73c2.919 0 5.294-2.375 5.294-5.294s-2.375-5.294-5.294-5.294c-2.919 0-5.294 2.375-5.294 5.294s2.375 5.294 5.294 5.294v0zM10.035 6.142c1.265 0 2.294 1.029 2.294 2.294s-1.029 2.294-2.294 2.294c-1.265 0-2.294-1.029-2.294-2.294s1.029-2.294 2.294-2.294v0zM11.075 24.422c0 0.828-0.672 1.5-1.5 1.5h-8.075c-0.828 0-1.5-0.672-1.5-1.5v-2.493c0-3.447 2.471-6.343 5.875-6.885 1.352-0.215 2.752-0.325 4.16-0.325 1.211 0 2.42 0.081 3.592 0.241 0.821 0.112 1.396 0.868 1.284 1.689s-0.867 1.396-1.689 1.284c-1.039-0.141-2.111-0.213-3.188-0.213-1.251 0-2.492 0.097-3.689 0.287-1.939 0.309-3.347 1.958-3.347 3.922v0.993h6.574c0.828 0 1.5 0.672 1.5 1.5v0z"></path>
</symbol>
<symbol id="icon-email-black" viewBox="0 0 24 32">
<path d="M20 8h-16c-1.1 0-1.99 0.9-1.99 2l-0.010 12c0 1.1 0.9 2 2 2h16c1.1 0 2-0.9 2-2v-12c0-1.1-0.9-2-2-2zM19.6 12.25l-7.070 4.42c-0.32 0.2-0.74 0.2-1.060 0l-7.070-4.42c-0.25-0.16-0.4-0.43-0.4-0.72 0-0.67 0.73-1.070 1.3-0.72l6.7 4.19 6.7-4.19c0.57-0.35 1.3 0.050 1.3 0.72 0 0.29-0.15 0.56-0.4 0.72z"></path>
</symbol>
<symbol id="icon-person-black" viewBox="0 0 32 32">
<path d="M16 16c2.947 0 5.333-2.387 5.333-5.333s-2.387-5.333-5.333-5.333c-2.947 0-5.333 2.387-5.333 5.333s2.387 5.333 5.333 5.333zM16 18.667c-3.56 0-10.667 1.787-10.667 5.333v1.333c0 0.733 0.6 1.333 1.333 1.333h18.667c0.733 0 1.333-0.6 1.333-1.333v-1.333c0-3.547-7.107-5.333-10.667-5.333z"></path>
</symbol>
<symbol id="icon-phone-black" viewBox="0 0 24 32">
<path d="M19.635 18.487l-2.451-0.28c-0.589-0.067-1.167 0.135-1.582 0.55l-1.775 1.775c-2.731-1.389-4.969-3.618-6.359-6.359l1.785-1.785c0.415-0.415 0.618-0.994 0.55-1.582l-0.28-2.432c-0.116-0.975-0.936-1.708-1.92-1.708h-1.669c-1.090 0-1.997 0.907-1.93 1.997 0.511 8.24 7.102 14.821 15.332 15.332 1.090 0.068 1.997-0.839 1.997-1.93v-1.669c0.010-0.975-0.724-1.795-1.698-1.911z"></path>
</symbol>
<symbol id="icon-plainform" viewBox="0 0 32 32">
<path fill="#fff" style="fill: var(--color2, #fff)" d="M32 2.667l-32 15 10.227 3.156 15.773-12.323-11.998 13.488 0.010 0.003-0.012-0.003v7.345l5.735-5.576 7.265 2.242 5-23.333z"></path>
</symbol>
</defs>
</svg>
